<?xml version="1.0" encoding="UTF-8" standalone="no"?>
<svg
   xmlns:dc="http://purl.org/dc/elements/1.1/"
   xmlns:cc="http://creativecommons.org/ns#"
   xmlns:rdf="http://www.w3.org/1999/02/22-rdf-syntax-ns#"
   xmlns:svg="http://www.w3.org/2000/svg"
   xmlns="http://www.w3.org/2000/svg"
   xmlns:sodipodi="http://sodipodi.sourceforge.net/DTD/sodipodi-0.dtd"
   xmlns:inkscape="http://www.inkscape.org/namespaces/inkscape"
   width="452.45901"
   height="96"
   viewBox="0 0 452.45901 96.000008"
   version="1.1"
   id="svg2112"
   inkscape:version="1.0.2 (1.0.2+r75+1)"
   sodipodi:docname="icon_text.svg">
  <defs
     id="defs2106">
    <rect
       x="645.90955"
       y="45.977581"
       width="248.2307"
       height="71.300766"
       id="rect943" />
  </defs>
  <sodipodi:namedview
     id="base"
     pagecolor="#ffffff"
     bordercolor="#666666"
     borderopacity="1.0"
     inkscape:pageopacity="0.0"
     inkscape:pageshadow="2"
     inkscape:zoom="0.53561479"
     inkscape:cx="-4.052236"
     inkscape:cy="331.25679"
     inkscape:document-units="px"
     inkscape:current-layer="layer1"
     inkscape:document-rotation="0"
     showgrid="false"
     inkscape:window-width="1747"
     inkscape:window-height="1199"
     inkscape:window-x="241"
     inkscape:window-y="125"
     inkscape:window-maximized="0"
     units="px" />
  <metadata
     id="metadata2109">
    <rdf:RDF>
      <cc:Work
         rdf:about="">
        <dc:format>image/svg+xml</dc:format>
        <dc:type
           rdf:resource="http://purl.org/dc/dcmitype/StillImage" />
        <dc:title />
      </cc:Work>
    </rdf:RDF>
  </metadata>
  <g
     inkscape:label="Layer 1"
     inkscape:groupmode="layer"
     id="layer1">
    <g
       aria-label="three.cad"
       transform="matrix(1.8120726,0,0,1.8120726,-1064.5195,-78.240227)"
       id="text941"
       style="font-style:normal;font-weight:normal;font-size:40px;line-height:1.25;font-family:sans-serif;letter-spacing:0px;word-spacing:0px;white-space:pre;shape-inside:url(#rect943);fill:#000000;fill-opacity:1;stroke:none">
      <path
         d="m 655.63016,64.726208 h 7.84 v 2.76 h -7.84 v 8.64 q 0,1.4 0.2,2.28 0.2,0.88 0.64,1.44 0.48,0.52 1.2,0.72 0.72,0.2 1.76,0.2 1.44,0 2.32,-0.24 0.88,-0.24 1.68,-0.64 l 0.48,2.8 q -0.56,0.24 -1.8,0.64 -1.2,0.4 -3,0.4 -2.08,0 -3.4,-0.48 -1.32,-0.48 -2.08,-1.44 -0.72,-0.96 -1,-2.36 -0.28,-1.44 -0.28,-3.32 v -8.64 h -3.92 v -2.76 h 3.92 v -5.2 l 3.28,-0.56 z"
         style="font-style:normal;font-variant:normal;font-weight:normal;font-stretch:normal;font-family:'Ubuntu Mono';-inkscape-font-specification:'Ubuntu Mono'"
         id="path842" />
      <path
         d="m 668.75008,83.286208 v -27.16 l 3.32,-0.56 v 9.44 q 0.8,-0.32 1.8,-0.48 1,-0.2 1.96,-0.2 2.12,0 3.52,0.64 1.44,0.6 2.28,1.72 0.84,1.12 1.2,2.68 0.36,1.56 0.36,3.44 v 10.48 h -3.28 v -9.76 q 0,-3.44 -0.96,-4.84 -0.96,-1.44 -3.44,-1.44 -1.04,0 -2.04,0.24 -0.96,0.2 -1.4,0.4 v 15.4 z"
         style="font-style:normal;font-variant:normal;font-weight:normal;font-stretch:normal;font-family:'Ubuntu Mono';-inkscape-font-specification:'Ubuntu Mono'"
         id="path844" />
      <path
         d="m 690.19,83.286208 v -17.56 q 4.08,-1.4 8.24,-1.4 1.28,0 2.44,0.12 1.16,0.08 2.56,0.4 l -0.6,2.92 q -1.28,-0.36 -2.28,-0.44 -0.96,-0.12 -2.12,-0.12 -2.44,0 -4.96,0.68 v 15.4 z"
         style="font-style:normal;font-variant:normal;font-weight:normal;font-stretch:normal;font-family:'Ubuntu Mono';-inkscape-font-specification:'Ubuntu Mono'"
         id="path846" />
      <path
         d="m 716.26993,64.286208 q 3.76,0 5.8,2.36 2.04,2.32 2.04,7.08 v 1.16 h -13.28 q 0.2,2.88 1.88,4.4 1.72,1.48 4.8,1.48 1.76,0 3,-0.28 1.24,-0.28 1.88,-0.6 l 0.44,2.8 q -0.6,0.32 -2.16,0.68 -1.56,0.36 -3.52,0.36 -2.4,0 -4.24,-0.72 -1.8,-0.76 -3,-2.04 -1.2,-1.28 -1.8,-3.04 -0.6,-1.8 -0.6,-3.88 0,-2.48 0.76,-4.32 0.76,-1.84 2,-3.04 1.24,-1.2 2.8,-1.8 1.56,-0.6 3.2,-0.6 z m 4.48,7.92 q 0,-2.36 -1.24,-3.72 -1.24,-1.4 -3.28,-1.4 -1.16,0 -2.12,0.44 -0.92,0.44 -1.6,1.16 -0.68,0.72 -1.08,1.64 -0.4,0.92 -0.52,1.88 z"
         style="font-style:normal;font-variant:normal;font-weight:normal;font-stretch:normal;font-family:'Ubuntu Mono';-inkscape-font-specification:'Ubuntu Mono'"
         id="path848" />
      <path
         d="m 736.26985,64.286208 q 3.76,0 5.8,2.36 2.04,2.32 2.04,7.08 v 1.16 h -13.28 q 0.2,2.88 1.88,4.4 1.72,1.48 4.8,1.48 1.76,0 3,-0.28 1.24,-0.28 1.88,-0.6 l 0.44,2.8 q -0.6,0.32 -2.16,0.68 -1.56,0.36 -3.52,0.36 -2.4,0 -4.24,-0.72 -1.8,-0.76 -3,-2.04 -1.2,-1.28 -1.8,-3.04 -0.6,-1.8 -0.6,-3.88 0,-2.48 0.76,-4.32 0.76,-1.84 2,-3.04 1.24,-1.2 2.8,-1.8 1.56,-0.6 3.2,-0.6 z m 4.48,7.92 q 0,-2.36 -1.24,-3.72 -1.24,-1.4 -3.28,-1.4 -1.16,0 -2.12,0.44 -0.92,0.44 -1.6,1.16 -0.68,0.72 -1.08,1.64 -0.4,0.92 -0.52,1.88 z"
         style="font-style:normal;font-variant:normal;font-weight:normal;font-stretch:normal;font-family:'Ubuntu Mono';-inkscape-font-specification:'Ubuntu Mono'"
         id="path850" />
      <path
         d="m 758.86977,80.726208 q 0,1.2 -0.8,2.12 -0.8,0.92 -2.12,0.92 -1.36,0 -2.16,-0.92 -0.8,-0.92 -0.8,-2.12 0,-1.24 0.8,-2.16 0.8,-0.92 2.16,-0.92 1.32,0 2.12,0.92 0.8,0.92 0.8,2.16 z"
         style="font-style:normal;font-variant:normal;font-weight:normal;font-stretch:normal;font-family:'Ubuntu Mono';-inkscape-font-specification:'Ubuntu Mono'"
         id="path852" />
      <path
         d="m 767.8697,74.046208 q 0,-2.52 0.8,-4.36 0.8,-1.84 2.2,-3.04 1.4,-1.2 3.24,-1.76 1.88,-0.6 4,-0.6 1.36,0 2.68,0.2 1.36,0.16 2.88,0.64 l -0.76,2.84 q -1.32,-0.48 -2.44,-0.6 -1.08,-0.16 -2.2,-0.16 -1.44,0 -2.72,0.4 -1.28,0.36 -2.24,1.2 -0.92,0.8 -1.48,2.12 -0.56,1.28 -0.56,3.12 0,1.76 0.52,3.04 0.52,1.24 1.44,2.08 0.96,0.8 2.28,1.2 1.32,0.4 2.92,0.4 1.28,0 2.44,-0.12 1.2,-0.16 2.6,-0.64 l 0.48,2.76 q -1.4,0.52 -2.84,0.72 -1.44,0.24 -3.12,0.24 -2.24,0 -4.12,-0.6 -1.84,-0.64 -3.2,-1.84 -1.32,-1.2 -2.08,-3 -0.72,-1.84 -0.72,-4.24 z"
         style="font-style:normal;font-variant:normal;font-weight:normal;font-stretch:normal;font-family:'Ubuntu Mono';-inkscape-font-specification:'Ubuntu Mono'"
         id="path854" />
      <path
         d="m 796.10962,80.926208 q 1.24,0 2.2,-0.08 1,-0.08 1.64,-0.2 v -5.52 q -0.64,-0.2 -1.56,-0.32 -0.88,-0.12 -1.88,-0.12 -0.92,0 -1.8,0.16 -0.88,0.12 -1.56,0.48 -0.68,0.36 -1.12,0.96 -0.44,0.56 -0.44,1.44 0,1.8 1.2,2.52 1.24,0.68 3.32,0.68 z m -0.32,-16.64 q 2.08,0 3.48,0.52 1.44,0.52 2.32,1.44 0.88,0.92 1.24,2.24 0.36,1.32 0.36,2.88 v 11.6 q -1.16,0.2 -3.08,0.48 -1.88,0.28 -3.88,0.28 -1.52,0 -2.96,-0.28 -1.44,-0.24 -2.56,-0.88 -1.12,-0.68 -1.8,-1.84 -0.68,-1.16 -0.68,-2.96 0,-1.6 0.68,-2.68 0.72,-1.12 1.8,-1.8 1.12,-0.68 2.52,-0.96 1.44,-0.32 2.88,-0.32 1.96,0 3.84,0.44 v -0.92 q 0,-0.84 -0.2,-1.6 -0.16,-0.8 -0.68,-1.44 -0.48,-0.64 -1.36,-1 -0.84,-0.4 -2.2,-0.4 -1.72,0 -3,0.24 -1.28,0.24 -1.96,0.48 l -0.4,-2.72 q 0.68,-0.32 2.24,-0.56 1.6,-0.24 3.4,-0.24 z"
         style="font-style:normal;font-variant:normal;font-weight:normal;font-stretch:normal;font-family:'Ubuntu Mono';-inkscape-font-specification:'Ubuntu Mono'"
         id="path856" />
      <path
         d="m 819.74955,68.646208 q -0.56,-0.52 -1.64,-0.96 -1.08,-0.48 -2.24,-0.48 -1.32,0 -2.28,0.52 -0.92,0.52 -1.52,1.44 -0.6,0.88 -0.88,2.16 -0.28,1.24 -0.28,2.68 0,3.24 1.52,5 1.52,1.76 3.96,1.76 1.24,0 2.08,-0.12 0.88,-0.12 1.28,-0.24 z m 0,-12.52 3.32,-0.56 v 27.2 q -1.08,0.32 -2.76,0.64 -1.68,0.32 -3.92,0.32 -2,0 -3.64,-0.68 -1.64,-0.68 -2.8,-1.92 -1.16,-1.28 -1.8,-3.08 -0.64,-1.8 -0.64,-4.04 0,-2.16 0.52,-3.92 0.56,-1.8 1.6,-3.08 1.04,-1.28 2.48,-2 1.48,-0.72 3.36,-0.72 1.48,0 2.6,0.36 1.12,0.36 1.68,0.76 z"
         style="font-style:normal;font-variant:normal;font-weight:normal;font-stretch:normal;font-family:'Ubuntu Mono';-inkscape-font-specification:'Ubuntu Mono'"
         id="path858" />
    </g>
    <g
       id="g921"
       transform="matrix(0.16834106,0,0,0.16834106,18.949768,14.727969)">
      <path
         style="fill:#34d399;fill-opacity:0.698039;stroke:none;stroke-width:1px;stroke-linecap:butt;stroke-linejoin:miter;stroke-opacity:1"
         d="m 51.316614,84.370759 164.499996,-95.000008 164.5,95.000008 -164.5,95.000041 z"
         id="path2578"
         sodipodi:nodetypes="ccccc" />
      <path
         style="fill:#34d399;fill-opacity:0.698039;stroke:none;stroke-width:1px;stroke-linecap:butt;stroke-linejoin:miter;stroke-opacity:1"
         d="m 401.16781,121 0.0224,189.96118 -164.52241,94.96118 -0.0224,-189.96118 z"
         id="path2578-3"
         sodipodi:nodetypes="ccccc" />
      <path
         style="fill:#34d399;fill-opacity:0.698039;stroke:none;stroke-width:1px;stroke-linecap:butt;stroke-linejoin:miter;stroke-opacity:1"
         d="M 194.52241,405.92236 30,310.96118 30.022413,121 194.54483,215.96118 Z"
         id="path2578-6"
         sodipodi:nodetypes="ccccc" />
    </g>
  </g>
</svg>
