<?xml version="1.0" encoding="UTF-8" standalone="no"?>
<svg
   xmlns:dc="http://purl.org/dc/elements/1.1/"
   xmlns:cc="http://creativecommons.org/ns#"
   xmlns:rdf="http://www.w3.org/1999/02/22-rdf-syntax-ns#"
   xmlns:svg="http://www.w3.org/2000/svg"
   xmlns="http://www.w3.org/2000/svg"
   xmlns:sodipodi="http://sodipodi.sourceforge.net/DTD/sodipodi-0.dtd"
   xmlns:inkscape="http://www.inkscape.org/namespaces/inkscape"
   width="16"
   height="16"
   fill="currentColor"
   class="bi bi-intersect"
   viewBox="0 0 16 16"
   version="1.1"
   id="svg4"
   sodipodi:docname="union_thin.svg"
   inkscape:version="1.0.2 (1.0.2+r75+1)">
  <metadata
     id="metadata10">
    <rdf:RDF>
      <cc:Work
         rdf:about="">
        <dc:format>image/svg+xml</dc:format>
        <dc:type
           rdf:resource="http://purl.org/dc/dcmitype/StillImage" />
        <dc:title></dc:title>
      </cc:Work>
    </rdf:RDF>
  </metadata>
  <defs
     id="defs8" />
  <sodipodi:namedview
     pagecolor="#ffffff"
     bordercolor="#666666"
     borderopacity="1"
     objecttolerance="10"
     gridtolerance="10"
     guidetolerance="10"
     inkscape:pageopacity="0"
     inkscape:pageshadow="2"
     inkscape:window-width="1514"
     inkscape:window-height="1169"
     id="namedview6"
     showgrid="false"
     inkscape:zoom="30.162102"
     inkscape:cx="3.4385179"
     inkscape:cy="3.8467787"
     inkscape:window-x="280"
     inkscape:window-y="90"
     inkscape:window-maximized="0"
     inkscape:current-layer="svg4"
     inkscape:document-rotation="0" />
  <path
     style="fill:#000000;fill-opacity:0.7;stroke:none;stroke-width:1.24744;stroke-linecap:round;stroke-miterlimit:4;stroke-dasharray:none;stroke-dashoffset:0;stroke-opacity:1"
     d="M 5.382896,5.3299006 C 5.3630551,5.5080423 5.3285246,5.681683 5.3285246,5.86525 c 0,2.6673286 2.1508156,4.818144 4.8181444,4.818144 0.183567,0 0.357207,-0.03453 0.535349,-0.05437 V 5.86525 c 0,-0.3058436 -0.229505,-0.5353494 -0.535349,-0.5353494 z"
     id="path958" />
  <path
     style="fill:#000000;fill-opacity:0.7;stroke:none;stroke-width:1.26153;stroke-linecap:round;stroke-miterlimit:4;stroke-dasharray:none;stroke-dashoffset:0;stroke-opacity:1"
     d="m 1.8992563,4.8989629 c -0.3092992,0 -0.541398,0.2320989 -0.541398,0.5413981 v 8.662369 c 0,0.309301 0.2320988,0.541399 0.541398,0.541399 h 8.6623697 c 0.309301,0 0.541399,-0.232098 0.541399,-0.541399 v -2.734483 c -0.178843,0.01625 -0.358408,0.0275 -0.541399,0.0275 -3.2826524,0 -5.9553792,-2.6727275 -5.9553792,-5.9553799 0,-0.1829908 0.01124,-0.3625553 0.027494,-0.5413981 z"
     id="path956" />
  <path
     style="fill:#000000;fill-opacity:0.7;stroke:none;stroke-width:1.25561;stroke-linecap:round;stroke-miterlimit:4;stroke-dasharray:none;stroke-dashoffset:0;stroke-opacity:1"
     d="m 9.8153527,1.31679 c -2.1143158,0 -3.8868797,1.3513239 -4.5529312,3.2331494 h 4.5529312 c 0.8862613,0 1.6165743,0.7303132 1.6165743,1.6165748 v 4.5529298 c 1.881825,-0.66605 3.233149,-2.438614 3.233149,-4.5529298 0,-2.6848113 -2.164913,-4.8497242 -4.8497233,-4.8497242 z"
     id="path954" />
  <rect
     style="fill:none;fill-opacity:0.697106;stroke:#000000;stroke-width:0.9;stroke-linecap:round;stroke-miterlimit:4;stroke-dasharray:none;stroke-opacity:1"
     id="rect833"
     width="10"
     height="10"
     x="1"
     y="5"
     rx="1"
     ry="1" />
  <circle
     style="fill:none;fill-opacity:0.697106;stroke:#000000;stroke-width:0.9;stroke-linecap:round;stroke-miterlimit:4;stroke-dasharray:none;stroke-opacity:1"
     id="path835"
     cx="10"
     cy="6"
     r="5" />
</svg>
