<?xml version="1.0" encoding="UTF-8" standalone="no"?>
<svg
   xmlns:dc="http://purl.org/dc/elements/1.1/"
   xmlns:cc="http://creativecommons.org/ns#"
   xmlns:rdf="http://www.w3.org/1999/02/22-rdf-syntax-ns#"
   xmlns:svg="http://www.w3.org/2000/svg"
   xmlns="http://www.w3.org/2000/svg"
   xmlns:sodipodi="http://sodipodi.sourceforge.net/DTD/sodipodi-0.dtd"
   xmlns:inkscape="http://www.inkscape.org/namespaces/inkscape"
   width="16"
   height="16"
   fill="currentColor"
   class="bi bi-intersect"
   viewBox="0 0 16 16"
   version="1.1"
   id="svg4"
   sodipodi:docname="union.svg"
   inkscape:version="1.0.2 (1.0.2+r75+1)">
  <metadata
     id="metadata10">
    <rdf:RDF>
      <cc:Work
         rdf:about="">
        <dc:format>image/svg+xml</dc:format>
        <dc:type
           rdf:resource="http://purl.org/dc/dcmitype/StillImage" />
        <dc:title></dc:title>
      </cc:Work>
    </rdf:RDF>
  </metadata>
  <defs
     id="defs8" />
  <sodipodi:namedview
     pagecolor="#ffffff"
     bordercolor="#666666"
     borderopacity="1"
     objecttolerance="10"
     gridtolerance="10"
     guidetolerance="10"
     inkscape:pageopacity="0"
     inkscape:pageshadow="2"
     inkscape:window-width="1514"
     inkscape:window-height="1169"
     id="namedview6"
     showgrid="false"
     inkscape:zoom="15.534389"
     inkscape:cx="-4.8559631"
     inkscape:cy="6.7608656"
     inkscape:window-x="184"
     inkscape:window-y="114"
     inkscape:window-maximized="0"
     inkscape:current-layer="svg4"
     inkscape:document-rotation="0" />
  <path
     style="fill:#000000;fill-opacity:0.69999999;stroke:none;stroke-width:1.16507;stroke-linecap:round;stroke-miterlimit:4;stroke-dasharray:none;stroke-dashoffset:0;stroke-opacity:1"
     d="M 5.5507812,5.5 C 5.5322504,5.6663789 5.5,5.828554 5.5,6 c 0,2.4912037 2.0087963,4.5 4.5,4.5 0.171446,0 0.333621,-0.03225 0.5,-0.05078 V 6 C 10.5,5.7143514 10.285649,5.5 10,5.5 Z"
     id="path958" />
  <path
     style="fill:#000000;fill-opacity:0.69999999;stroke:none;stroke-width:1.16507;stroke-linecap:round;stroke-miterlimit:4;stroke-dasharray:none;stroke-dashoffset:0;stroke-opacity:1"
     d="M 2,5.5 C 1.7143514,5.5 1.5,5.7143514 1.5,6 v 8 c 0,0.285649 0.2143514,0.5 0.5,0.5 h 8 c 0.285649,0 0.5,-0.214351 0.5,-0.5 V 11.474609 C 10.334832,11.48962 10.168998,11.5 10,11.5 6.9683562,11.5 4.5,9.0316438 4.5,6 c 0,-0.1689984 0.01038,-0.3348324 0.025391,-0.5 z"
     id="path956" />
  <path
     style="fill:#000000;fill-opacity:0.69999999;stroke:none;stroke-width:1.16507;stroke-linecap:round;stroke-miterlimit:4;stroke-dasharray:none;stroke-dashoffset:0;stroke-opacity:1"
     d="m 10,1.5 c -1.9618479,0 -3.6065883,1.253877 -4.2246094,3 H 10 c 0.822351,0 1.5,0.6776486 1.5,1.5 v 4.224609 C 13.246123,9.6065887 14.5,7.9618479 14.5,6 14.5,3.5087963 12.491204,1.5 10,1.5 Z"
     id="path954" />
  <rect
     style="fill:none;fill-opacity:0.697106;stroke:#000000;stroke-width:1.5;stroke-linecap:round;stroke-miterlimit:4;stroke-dasharray:none;stroke-opacity:1"
     id="rect833"
     width="10"
     height="10"
     x="1"
     y="5"
     rx="1"
     ry="1" />
  <circle
     style="fill:none;fill-opacity:0.697106;stroke:#000000;stroke-width:1.5;stroke-linecap:round;stroke-miterlimit:4;stroke-dasharray:none;stroke-opacity:1"
     id="path835"
     cx="10"
     cy="6"
     r="5" />
</svg>
