<?xml version="1.0" encoding="UTF-8" standalone="no"?>
<svg
   xmlns:dc="http://purl.org/dc/elements/1.1/"
   xmlns:cc="http://creativecommons.org/ns#"
   xmlns:rdf="http://www.w3.org/1999/02/22-rdf-syntax-ns#"
   xmlns:svg="http://www.w3.org/2000/svg"
   xmlns="http://www.w3.org/2000/svg"
   xmlns:sodipodi="http://sodipodi.sourceforge.net/DTD/sodipodi-0.dtd"
   xmlns:inkscape="http://www.inkscape.org/namespaces/inkscape"
   sodipodi:docname="mouse.original.svg"
   inkscape:version="1.0 (4035a4fb49, 2020-05-01)"
   id="svg8"
   version="1.1"
   viewBox="0 0 185.20764 211.66653"
   height="800"
   width="700">
  <defs
     id="defs2" />
  <sodipodi:namedview
     id="base"
     pagecolor="#000000"
     bordercolor="#666666"
     borderopacity="1.0"
     inkscape:pageopacity="0.41960784"
     inkscape:pageshadow="2"
     inkscape:zoom="1.2553118"
     inkscape:cx="344.69956"
     inkscape:cy="335.82524"
     inkscape:document-units="px"
     inkscape:current-layer="layer14"
     showgrid="false"
     units="px"
     inkscape:snap-others="false"
     showguides="true"
     inkscape:guide-bbox="true"
     inkscape:window-width="1916"
     inkscape:window-height="1028"
     inkscape:window-x="0"
     inkscape:window-y="24"
     inkscape:window-maximized="1"
     inkscape:object-nodes="false"
     inkscape:snap-nodes="true"
     inkscape:pagecheckerboard="false"
     inkscape:document-rotation="0"
     inkscape:snap-text-baseline="false"
     inkscape:snap-bbox="true"
     inkscape:bbox-paths="true"
     inkscape:bbox-nodes="true"
     inkscape:snap-bbox-edge-midpoints="true"
     inkscape:snap-bbox-midpoints="true"
     inkscape:snap-object-midpoints="false"
     inkscape:snap-center="false"
     inkscape:snap-to-guides="true">
    <sodipodi:guide
       position="152.0289,75.975229"
       orientation="1,0"
       id="guide1020" />
  </sodipodi:namedview>
  <metadata
     id="metadata5">
    <rdf:RDF>
      <cc:Work
         rdf:about="">
        <dc:format>image/svg+xml</dc:format>
        <dc:type
           rdf:resource="http://purl.org/dc/dcmitype/StillImage" />
        <dc:title></dc:title>
      </cc:Work>
    </rdf:RDF>
  </metadata>
  <g
     inkscape:label="Mouse frame (0)"
     id="layer1"
     inkscape:groupmode="layer">
    <path
       sodipodi:nodetypes="ccssssssccccsssssscc"
       inkscape:connector-curvature="0"
       d="m 57.143525,34.384496 -0.0013,9.986098 c -4.619332,1.640928 -7.911862,6.034282 -7.911862,11.224912 v 21.40433 c 0,6.587782 5.303559,11.891298 11.891385,11.891298 h 4.756555 c 6.587828,0 11.891386,-5.303516 11.891386,-11.891298 v -21.40433 c 0,-5.20858 -3.315345,-9.614594 -7.958982,-11.230262 l -0.03128,-9.980748 z m -3.156642,0 c -22.398612,0 -40.430706,18.031964 -40.430706,40.430406 v 61.835008 c 0,22.39862 18.032094,40.43072 40.430706,40.43072 h 19.026222 c 22.398612,0 40.430715,-18.0321 40.430715,-40.43072 V 74.814902 c 0,-22.398442 -18.032103,-40.430406 -40.430715,-40.430406 z"
       style="fill:none;fill-opacity:1;stroke:#ffffff;stroke-width:5.94569;stroke-linecap:round;stroke-linejoin:miter;stroke-miterlimit:4;stroke-dasharray:none;stroke-opacity:1;paint-order:markers stroke fill;opacity:1"
       id="rect4559" />
  </g>
  <g
     style="display:inline"
     inkscape:label="Left click (1)"
     id="layer2"
     inkscape:groupmode="layer">
    <path
       style="display:inline;opacity:1;fill:#ffffff;fill-opacity:1;stroke:none;stroke-width:5.94569;stroke-linecap:round;stroke-linejoin:miter;stroke-miterlimit:4;stroke-dasharray:none;stroke-opacity:1;paint-order:markers stroke fill"
       d="M 46.23194,44.336396 C 32.052243,49.048938 21.880146,62.386753 21.880146,78.188753 V 101.4958 h 41.619849 v -4.972052 h -2.37874 c -10.504585,0 -19.130733,-8.629161 -19.130733,-19.132555 V 55.9867 c 0,-4.456035 1.625405,-8.462768 4.241418,-11.650304 z"
       id="rect4605"
       inkscape:connector-curvature="0"
       sodipodi:nodetypes="cscccsssc" />
  </g>
  <g
     inkscape:label="Middle click (2)"
     id="layer3"
     inkscape:groupmode="layer">
    <rect
       style="display:inline;opacity:1;fill:#ffffff;fill-opacity:1;stroke:none;stroke-width:5.94569;stroke-linecap:round;stroke-linejoin:miter;stroke-miterlimit:4;stroke-dasharray:none;stroke-opacity:1;paint-order:markers stroke fill"
       id="rect4603"
       width="13.080523"
       height="29.72846"
       x="56.959732"
       y="51.570152"
       rx="4.7565541"
       ry="4.7565541" />
  </g>
  <g
     inkscape:label="Right click (3)"
     id="layer4"
     inkscape:groupmode="layer">
    <path
       sodipodi:nodetypes="cscccsssc"
       inkscape:connector-curvature="0"
       id="path4664"
       d="m 80.768052,44.336396 c 14.179695,4.712542 24.351798,18.050357 24.351798,33.852357 V 101.4958 H 63.499996 v -4.972062 h 2.37874 c 10.504583,0 19.130731,-8.629151 19.130731,-19.132545 V 55.9867 c 0,-4.456035 -1.625405,-8.462768 -4.241415,-11.650304 z"
       style="display:inline;opacity:1;fill:#ffffff;fill-opacity:1;stroke:none;stroke-width:5.94569;stroke-linecap:round;stroke-linejoin:miter;stroke-miterlimit:4;stroke-dasharray:none;stroke-opacity:1;paint-order:markers stroke fill" />
  </g>
  <g
     inkscape:label="Scroll up (4)"
     id="layer5"
     inkscape:groupmode="layer">
    <path
       id="path4588"
       style="display:inline;fill:none;stroke:#ffffff;stroke-width:5.94569;stroke-linecap:butt;stroke-linejoin:miter;stroke-miterlimit:4;stroke-dasharray:none;stroke-opacity:1"
       d="M 53.19098,18.360058 63.533489,8.0175498 73.809009,18.293074 M 63.533489,29.640336 V 8.0175498"
       inkscape:connector-curvature="0"
       sodipodi:nodetypes="ccccc" />
  </g>
  <g
     inkscape:label="Scroll down (5)"
     id="layer6"
     inkscape:groupmode="layer">
    <path
       sodipodi:nodetypes="ccccc"
       inkscape:connector-curvature="0"
       d="m 53.19098,105.46811 10.342509,10.3425 10.27552,-10.27552 M 63.533489,94.187874 v 21.622736"
       style="display:inline;fill:none;stroke:#ffffff;stroke-width:5.94569;stroke-linecap:butt;stroke-linejoin:miter;stroke-miterlimit:4;stroke-dasharray:none;stroke-opacity:1"
       id="path4591" />
  </g>
  <g
     inkscape:label="Scroll left (6)"
     id="layer7"
     inkscape:groupmode="layer">
    <path
       id="path4593"
       style="display:inline;fill:none;stroke:#ffffff;stroke-width:5.94569;stroke-linecap:butt;stroke-linejoin:miter;stroke-miterlimit:4;stroke-dasharray:none;stroke-opacity:1"
       d="M 33.064815,56.637818 22.722307,66.980326 32.997831,77.25584 M 44.345093,66.980326 H 22.722307"
       inkscape:connector-curvature="0"
       sodipodi:nodetypes="ccccc" />
  </g>
  <g
     inkscape:label="Scroll right (7)"
     id="layer8"
     inkscape:groupmode="layer">
    <path
       id="path4595"
       style="display:inline;fill:none;stroke:#ffffff;stroke-width:5.94569;stroke-linecap:butt;stroke-linejoin:miter;stroke-miterlimit:4;stroke-dasharray:none;stroke-opacity:1"
       d="M 93.935173,77.25584 104.27769,66.913333 94.002157,56.637818 M 82.654895,66.913333 h 21.622795"
       inkscape:connector-curvature="0"
       sodipodi:nodetypes="ccccc" />
  </g>
  <g
     inkscape:groupmode="layer"
     id="layer12"
     inkscape:label="Ctrl (8)">
    <g
       id="text943"
       style="font-style:normal;font-weight:normal;font-size:10.5833px;line-height:1.25;font-family:sans-serif;letter-spacing:0px;word-spacing:0px;fill:#000000;fill-opacity:1;stroke:none;stroke-width:0.264583">
      <path
         style="fill:#ffffff;stroke-width:0.264583"
         d="m 146.52541,52.879491 v 2.128035 q -1.01906,-0.949124 -2.17799,-1.41869 -1.14894,-0.469566 -2.44774,-0.469566 -2.55764,0 -3.91638,1.568551 -1.35875,1.55856 -1.35875,4.515829 0,2.947277 1.35875,4.515828 1.35874,1.558561 3.91638,1.558561 1.2988,0 2.44774,-0.469567 1.15893,-0.469566 2.17799,-1.418689 v 2.108053 q -1.05902,0.719335 -2.24793,1.079003 -1.17891,0.359668 -2.49769,0.359668 -3.38687,0 -5.33507,-2.06809 -1.9482,-2.07808 -1.9482,-5.664767 0,-3.596678 1.9482,-5.664768 1.9482,-2.07808 5.33507,-2.07808 1.33876,0 2.51768,0.359668 1.1889,0.349677 2.22794,1.059021 z"
         id="path1588" />
      <path
         d="m 151.38092,52.280045 v 3.177065 h 3.7865 v 1.428681 h -3.7865 v 6.074389 q 0,1.368735 0.36966,1.758375 0.37965,0.389641 1.52859,0.389641 h 1.88825 v 1.538578 h -1.88825 q -2.12804,0 -2.93729,-0.789271 -0.80925,-0.799261 -0.80925,-2.897323 v -6.074389 h -1.34875 V 55.45711 h 1.34875 v -3.177065 z"
         style="fill:#ffffff;stroke-width:0.264583"
         id="path1590" />
      <path
         d="m 164.0692,57.175523 q -0.30971,-0.179834 -0.67937,-0.25976 -0.35967,-0.08992 -0.79926,-0.08992 -1.55856,0 -2.39779,1.019059 -0.82923,1.009068 -0.82923,2.907314 v 5.894555 h -1.84829 V 55.45711 h 1.84829 v 1.738395 q 0.57946,-1.019059 1.50861,-1.508607 0.92914,-0.499538 2.25791,-0.499538 0.18982,0 0.41961,0.02997 0.22979,0.01998 0.50953,0.06994 z"
         style="fill:#ffffff;stroke-width:0.264583"
         id="path1592" />
      <path
         d="m 165.99742,51.101134 h 1.8383 v 15.54564 h -1.8383 z"
         style="fill:#ffffff;stroke-width:0.264583"
         id="path1594" />
    </g>
    <rect
       style="fill:none;fill-opacity:1;stroke:#ffffff;stroke-width:2.9;stroke-linecap:butt;stroke-linejoin:round;stroke-miterlimit:4;stroke-dasharray:none;stroke-opacity:1"
       id="rect953"
       width="45.843319"
       height="27.083668"
       x="129.10742"
       y="45.476986"
       ry="0.18775558" />
  </g>
  <g
     inkscape:groupmode="layer"
     id="layer14"
     inkscape:label="Alt (9)">
    <g
       id="text947"
       style="font-style:normal;font-weight:normal;font-size:10.5833px;line-height:1.25;font-family:sans-serif;letter-spacing:0px;word-spacing:0px;fill:#000000;fill-opacity:1;stroke:none;stroke-width:0.264583">
      <path
         d="m 144.38377,99.443142 -2.73747,7.423148 h 5.48493 z m -1.13895,-1.988163 h 2.28789 l 5.68475,14.916221 h -2.09807 l -1.35874,-3.82646 h -6.72379 l -1.35875,3.82646 h -2.12803 z"
         style="fill:#ffffff;stroke-width:0.264583"
         id="path1597" />
      <path
         d="m 153.31552,96.82556 h 1.8383 v 15.54564 h -1.8383 z"
         style="fill:#ffffff;stroke-width:0.264583"
         id="path1599" />
      <path
         d="m 160.81859,98.004471 v 3.177069 h 3.7865 v 1.42868 h -3.7865 v 6.07439 q 0,1.36873 0.36966,1.75837 0.37965,0.38964 1.52858,0.38964 h 1.88826 v 1.53858 h -1.88826 q -2.12803,0 -2.93728,-0.78927 -0.80926,-0.79926 -0.80926,-2.89732 v -6.07439 h -1.34875 v -1.42868 h 1.34875 v -3.177069 z"
         style="fill:#ffffff;stroke-width:0.264583"
         id="path1601" />
    </g>
    <rect
       ry="0.18775558"
       y="91.383667"
       x="132.16098"
       height="27.083672"
       width="39.736214"
       id="rect953-4"
       style="opacity:1;fill:none;fill-opacity:1;stroke:#ffffff;stroke-width:2.89999;stroke-linecap:butt;stroke-linejoin:round;stroke-miterlimit:4;stroke-dasharray:none;stroke-opacity:1" />
  </g>
  <g
     inkscape:groupmode="layer"
     id="layer13"
     inkscape:label="Shift (10)">
    <g
       id="text951"
       style="font-style:normal;font-weight:normal;font-size:10.5833px;line-height:1.25;font-family:sans-serif;letter-spacing:0px;word-spacing:0px;fill:#000000;fill-opacity:1;stroke:none;stroke-width:0.264583">
      <path
         d="m 139.23953,144.18143 v 1.96819 q -1.14894,-0.5495 -2.168,-0.81925 -1.01906,-0.26975 -1.96818,-0.26975 -1.64848,0 -2.54765,0.63941 -0.88918,0.63941 -0.88918,1.81832 0,0.98909 0.58946,1.49862 0.59944,0.49954 2.25791,0.80925 l 1.21888,0.24977 q 2.25791,0.4296 3.32692,1.5186 1.07901,1.079 1.07901,2.89732 0,2.168 -1.45866,3.28696 -1.44866,1.11897 -4.25606,1.11897 -1.05903,0 -2.25792,-0.23978 -1.1889,-0.23978 -2.46772,-0.70934 v -2.07808 q 1.22887,0.68936 2.40778,1.03904 1.17891,0.34967 2.31786,0.34967 1.7284,0 2.66753,-0.67937 0.93913,-0.67937 0.93913,-1.93821 0,-1.09898 -0.67937,-1.71841 -0.66938,-0.61943 -2.20796,-0.92914 l -1.22886,-0.23978 q -2.25792,-0.44959 -3.26699,-1.4087 -1.00906,-0.95911 -1.00906,-2.66754 0,-1.97817 1.38871,-3.11712 1.39871,-1.13894 3.84645,-1.13894 1.04903,0 2.13803,0.18982 1.08899,0.18983 2.22794,0.56947 z"
         style="fill:#ffffff;stroke-width:0.264583"
         id="path1604" />
      <path
         d="m 152.50727,151.85435 v 6.75376 h -1.8383 v -6.69382 q 0,-1.58853 -0.61943,-2.3778 -0.61943,-0.78927 -1.85828,-0.78927 -1.48863,0 -2.34783,0.94912 -0.85921,0.94912 -0.85921,2.58761 v 6.32416 h -1.84829 v -15.54564 h 1.84829 v 6.09437 q 0.65939,-1.00907 1.54857,-1.50861 0.89917,-0.49954 2.06809,-0.49954 1.92822,0 2.91731,1.1989 0.98908,1.1889 0.98908,3.50676 z"
         style="fill:#ffffff;stroke-width:0.264583"
         id="path1606" />
      <path
         d="m 156.17389,147.41844 h 1.8383 v 11.18967 h -1.8383 z m 0,-4.35597 h 1.8383 v 2.32785 h -1.8383 z"
         style="fill:#ffffff;stroke-width:0.264583"
         id="path1608" />
      <path
         d="m 167.5234,143.06247 v 1.52859 h -1.75837 q -0.98909,0 -1.37873,0.39963 -0.37965,0.39963 -0.37965,1.43867 v 0.98908 h 3.0272 v 1.42868 h -3.0272 v 9.76099 h -1.84829 v -9.76099 h -1.75838 v -1.42868 h 1.75838 v -0.77928 q 0,-1.86827 0.8692,-2.71749 0.86919,-0.8592 2.75745,-0.8592 z"
         style="fill:#ffffff;stroke-width:0.264583"
         id="path1610" />
      <path
         d="m 170.52063,144.24138 v 3.17706 h 3.78651 v 1.42868 h -3.78651 v 6.07439 q 0,1.36874 0.36966,1.75838 0.37965,0.38964 1.52859,0.38964 h 1.88826 v 1.53858 h -1.88826 q -2.12803,0 -2.93729,-0.78927 -0.80925,-0.79926 -0.80925,-2.89733 v -6.07439 h -1.34875 v -1.42868 h 1.34875 v -3.17706 z"
         style="fill:#ffffff;stroke-width:0.264583"
         id="path1612" />
    </g>
    <rect
       style="opacity:1;fill:none;fill-opacity:1;stroke:#ffffff;stroke-width:2.89999;stroke-linecap:butt;stroke-linejoin:round;stroke-miterlimit:4;stroke-dasharray:none;stroke-opacity:1"
       id="rect953-4-3"
       width="55.559566"
       height="26.966721"
       x="124.2493"
       y="137.1413"
       ry="0.18775558" />
  </g>
</svg>
