<svg width="700" height="800" version="1.1" viewBox="0 0 185.21 211.67" xmlns="http://www.w3.org/2000/svg">
  <path d="m57.144 34.384-0.0013 9.9861c-4.6193 1.6409-7.9119 6.0343-7.9119 11.225v21.404c0 6.5878 5.3036 11.891 11.891 11.891h4.7566c6.5878 0 11.891-5.3035 11.891-11.891v-21.404c0-5.2086-3.3153-9.6146-7.959-11.23l-0.03128-9.9807zm-3.1566 0c-22.399 0-40.431 18.032-40.431 40.43v61.835c0 22.399 18.032 40.431 40.431 40.431h19.026c22.399 0 40.431-18.032 40.431-40.431v-61.835c0-22.398-18.032-40.43-40.431-40.43z" fill="none" stroke="#fff" stroke-linecap="round" stroke-width="5.9457" style="paint-order:markers stroke fill"/>
  <path d="m46.232 44.336c-14.18 4.7125-24.352 18.05-24.352 33.852v23.307h41.62v-4.9721h-2.3787c-10.505 0-19.131-8.6292-19.131-19.133v-21.404c0-4.456 1.6254-8.4628 4.2414-11.65z" fill="#fff" style="paint-order:markers stroke fill"/>
  <rect x="56.96" y="51.57" width="13.081" height="29.728" rx="4.7566" ry="4.7566" fill="#fff" style="paint-order:markers stroke fill"/>
  <path d="m80.768 44.336c14.18 4.7125 24.352 18.05 24.352 33.852v23.307h-41.62v-4.9721h2.3787c10.505 0 19.131-8.6292 19.131-19.133v-21.404c0-4.456-1.6254-8.4628-4.2414-11.65z" fill="#fff" style="paint-order:markers stroke fill"/>
  <path d="m53.191 18.36 10.343-10.343 10.276 10.276m-10.276 11.347v-21.623" fill="none" stroke="#fff" stroke-width="5.9457"/>
  <path d="m53.191 105.47 10.343 10.342 10.276-10.276m-10.276-11.347v21.623" fill="none" stroke="#fff" stroke-width="5.9457"/>
  <path d="m33.065 56.638-10.343 10.343 10.276 10.276m11.347-10.276h-21.623" fill="none" stroke="#fff" stroke-width="5.9457"/>
  <path d="m93.935 77.256 10.343-10.343-10.276-10.276m-11.347 10.276h21.623" fill="none" stroke="#fff" stroke-width="5.9457"/>
  <g><g fill="#fff" stroke-width=".26458" aria-label="Ctrl"><path d="m146.53 52.879v2.128q-1.0191-0.94912-2.178-1.4187-1.1489-0.46957-2.4477-0.46957-2.5576 0-3.9164 1.5686-1.3588 1.5586-1.3588 4.5158 0 2.9473 1.3588 4.5158 1.3587 1.5586 3.9164 1.5586 1.2988 0 2.4477-0.46957 1.1589-0.46957 2.178-1.4187v2.1081q-1.059 0.71934-2.2479 1.079-1.1789 0.35967-2.4977 0.35967-3.3869 0-5.3351-2.0681-1.9482-2.0781-1.9482-5.6648 0-3.5967 1.9482-5.6648 1.9482-2.0781 5.3351-2.0781 1.3388 0 2.5177 0.35967 1.1889 0.34968 2.2279 1.059z"/><path d="m151.38 52.28v3.1771h3.7865v1.4287h-3.7865v6.0744q0 1.3687 0.36966 1.7584 0.37965 0.38964 1.5286 0.38964h1.8882v1.5386h-1.8882q-2.128 0-2.9373-0.78927-0.80925-0.79926-0.80925-2.8973v-6.0744h-1.3488v-1.4287h1.3488v-3.1771z"/><path d="m164.07 57.176q-0.30971-0.17983-0.67937-0.25976-0.35967-0.08992-0.79926-0.08992-1.5586 0-2.3978 1.0191-0.82923 1.0091-0.82923 2.9073v5.8946h-1.8483v-11.19h1.8483v1.7384q0.57946-1.0191 1.5086-1.5086 0.92914-0.49954 2.2579-0.49954 0.18982 0 0.41961 0.02997 0.22979 0.01998 0.50953 0.06994z"/><path d="m166 51.101h1.8383v15.546h-1.8383z"/></g><rect x="129.11" y="45.477" width="45.843" height="27.084" ry=".18776" fill="none" stroke="#fff" stroke-linejoin="round" stroke-width="2.9"/></g>
  <g><g fill="#fff" stroke-width=".26458" aria-label="Alt"><path d="m144.38 99.443-2.7375 7.4231h5.4849zm-1.139-1.9882h2.2879l5.6848 14.916h-2.0981l-1.3587-3.8265h-6.7238l-1.3588 3.8265h-2.128z"/><path d="m153.32 96.826h1.8383v15.546h-1.8383z"/><path d="m160.82 98.004v3.1771h3.7865v1.4287h-3.7865v6.0744q0 1.3687 0.36966 1.7584 0.37965 0.38964 1.5286 0.38964h1.8883v1.5386h-1.8883q-2.128 0-2.9373-0.78927-0.80926-0.79926-0.80926-2.8973v-6.0744h-1.3488v-1.4287h1.3488v-3.1771z"/></g><rect x="132.16" y="91.384" width="39.736" height="27.084" ry=".18776" fill="none" stroke="#fff" stroke-linejoin="round" stroke-width="2.9"/></g>
  <g><g fill="#fff" stroke-width=".26458" aria-label="Shift"><path d="m139.24 144.18v1.9682q-1.1489-0.5495-2.168-0.81925t-1.9682-0.26975q-1.6485 0-2.5476 0.63941-0.88918 0.63941-0.88918 1.8183 0 0.98909 0.58946 1.4986 0.59944 0.49954 2.2579 0.80925l1.2189 0.24977q2.2579 0.4296 3.3269 1.5186 1.079 1.079 1.079 2.8973 0 2.168-1.4587 3.287-1.4487 1.119-4.2561 1.119-1.059 0-2.2579-0.23978-1.1889-0.23978-2.4677-0.70934v-2.0781q1.2289 0.68936 2.4078 1.039 1.1789 0.34967 2.3179 0.34967 1.7284 0 2.6675-0.67937t0.93913-1.9382q0-1.099-0.67937-1.7184-0.66938-0.61943-2.208-0.92914l-1.2289-0.23978q-2.2579-0.44959-3.267-1.4087-1.0091-0.95911-1.0091-2.6675 0-1.9782 1.3887-3.1171 1.3987-1.1389 3.8464-1.1389 1.049 0 2.138 0.18982 1.089 0.18983 2.2279 0.56947z"/><path d="m152.51 151.85v6.7538h-1.8383v-6.6938q0-1.5885-0.61943-2.3778t-1.8583-0.78927q-1.4886 0-2.3478 0.94912-0.85921 0.94912-0.85921 2.5876v6.3242h-1.8483v-15.546h1.8483v6.0944q0.65939-1.0091 1.5486-1.5086 0.89917-0.49954 2.0681-0.49954 1.9282 0 2.9173 1.1989 0.98908 1.1889 0.98908 3.5068z"/><path d="m156.17 147.42h1.8383v11.19h-1.8383zm0-4.356h1.8383v2.3278h-1.8383z"/><path d="m167.52 143.06v1.5286h-1.7584q-0.98909 0-1.3787 0.39963-0.37965 0.39963-0.37965 1.4387v0.98908h3.0272v1.4287h-3.0272v9.761h-1.8483v-9.761h-1.7584v-1.4287h1.7584v-0.77928q0-1.8683 0.8692-2.7175 0.86919-0.8592 2.7574-0.8592z"/><path d="m170.52 144.24v3.1771h3.7865v1.4287h-3.7865v6.0744q0 1.3687 0.36966 1.7584 0.37965 0.38964 1.5286 0.38964h1.8883v1.5386h-1.8883q-2.128 0-2.9373-0.78927-0.80925-0.79926-0.80925-2.8973v-6.0744h-1.3488v-1.4287h1.3488v-3.1771z"/></g><rect x="124.25" y="137.14" width="55.56" height="26.967" ry=".18776" fill="none" stroke="#fff" stroke-linejoin="round" stroke-width="2.9"/></g>
</svg>
